<svg xmlns="http://www.w3.org/2000/svg" viewBox="0 0 100 100">
    <circle cx="50" cy="50" r="18.5" style="fill:#ebebeb"/>
    <path class="scada-rotation-img" d="M63,67.13a71.57,71.57,0,0,1,8,25.48,3.57,3.57,0,0,1-2.2,3.71A49.69,49.69,0,0,1,50,100c-.6,0-1.18,0-1.76-.08a4.28,4.28,0,0,1-3.14-1.59,3.77,3.77,0,0,1-.76-3.19c4.17-12,2.7-19.93,2-23.75l0-.21a21.53,21.53,0,0,0,16.69-4ZM29.82,57.42A21.59,21.59,0,0,0,41.65,69.82a71.59,71.59,0,0,1-18,19.64,3.57,3.57,0,0,1-4.32-.06A50.61,50.61,0,0,1,5.6,72.93a3.57,3.57,0,0,1,2.51-5.15c12.62-2.38,18.67-7.69,21.58-10.24Zm41.52-10.1a71.51,71.51,0,0,1,26,5.8,3.57,3.57,0,0,1,2.11,3.76A49.41,49.41,0,0,1,92.05,77a3.57,3.57,0,0,1-2.76,1.63h-.25a3.57,3.57,0,0,1-2.71-1.24c-8.37-9.73-16-12.32-19.66-13.56l-.17-.06A21.41,21.41,0,0,0,71.5,50,21.69,21.69,0,0,0,71.34,47.32ZM28.67,52.68a71.87,71.87,0,0,1-26-5.81A3.57,3.57,0,0,1,.53,43.1,49.42,49.42,0,0,1,7.95,23a3.57,3.57,0,0,1,2.75-1.63,3.69,3.69,0,0,1,3,1.23c8.37,9.73,16,12.32,19.66,13.56l.17.06A21.41,21.41,0,0,0,28.5,50,21.82,21.82,0,0,0,28.67,52.68Zm29.68-22.5a71.58,71.58,0,0,1,18-19.64,3.58,3.58,0,0,1,4.32.06A49.84,49.84,0,0,1,94.4,27.07a3.57,3.57,0,0,1-2.51,5.15C79.28,34.6,73.23,39.91,70.31,42.46l-.13.11A21.59,21.59,0,0,0,58.35,30.18ZM37,32.87A71.59,71.59,0,0,1,29,7.38a3.57,3.57,0,0,1,2.2-3.71A47.64,47.64,0,0,1,51.77.07,4.28,4.28,0,0,1,54.9,1.67a3.77,3.77,0,0,1,.76,3.19c-4.17,12-2.7,19.93-2,23.75l0,.22a21.53,21.53,0,0,0-16.69,4Z"
          transform="translate(0 0)" fill="#52a6e7"/>
</svg>